<?xml version="1.0" standalone="no"?>
<!DOCTYPE svg PUBLIC "-//W3C//DTD SVG 20010904//EN"
 "http://www.w3.org/TR/2001/REC-SVG-20010904/DTD/svg10.dtd">
<svg version="1.0" xmlns="http://www.w3.org/2000/svg"
 width="1280.000000pt" height="1211.000000pt" viewBox="0 0 1280.000000 1211.000000"
 preserveAspectRatio="xMidYMid meet">
<metadata>
Created by potrace 1.15, written by Peter Selinger 2001-2017
</metadata>
<g transform="translate(0.000000,1211.000000) scale(0.100000,-0.100000)"
fill="#000000" stroke="none">
<path d="M8065 12091 c-22 -10 -593 -483 -1270 -1052 -676 -568 -2112 -1773
-3190 -2677 -1078 -905 -1976 -1660 -1996 -1679 -64 -61 -75 -144 -26 -212 12
-18 760 -667 1662 -1442 4101 -3528 4808 -4135 4833 -4148 73 -39 179 -3 213
73 18 39 19 93 19 1254 l0 1212 483 0 c265 0 1177 3 2027 6 1718 7 1578 1
1627 74 l23 33 0 2952 0 2952 -23 33 c-12 19 -38 43 -57 54 -35 21 -38 21
-2057 24 l-2023 2 0 70 c0 39 -5 587 -11 1218 l-10 1147 -22 40 c-15 27 -37
47 -67 63 -54 27 -82 27 -135 3z"/>
</g>
</svg>
